<?xml version="1.0" encoding="utf-8"?>
<!-- Generator: Adobe Illustrator 16.0.0, SVG Export Plug-In . SVG Version: 6.00 Build 0)  -->
<!DOCTYPE svg PUBLIC "-//W3C//DTD SVG 1.1//EN" "http://www.w3.org/Graphics/SVG/1.1/DTD/svg11.dtd">
<svg version="1.1" id="Layer_1" xmlns="http://www.w3.org/2000/svg" xmlns:xlink="http://www.w3.org/1999/xlink" x="0px" y="0px"
	 width="960px" height="668.63px" viewBox="0 0 960 668.63" enable-background="new 0 0 960 668.63" xml:space="preserve">
<g>
	<g>
		<path fill="#1C75BC" d="M343.131,156.71c0-30.642,0-46.583,0.138-56.753H381.6v60.232h42.7V57.255h-7.16H381.6h-16.177
			c-7.511,0-29.852,0-51.213,0c-16.664,0-32.732,0-40.698,0c-5.146,0-7.548,0.687-7.548,3.088c0,2.401,2.062,3.088,5.837,3.088
			c4.799,0,10.626,0.339,13.376,1.024c11.314,2.406,14.055,7.892,14.741,19.552c0.686,10.971,0.686,20.578,0.686,72.702v98.43
			c0,67.213,0.344,101.51-25.719,127.917c-6.858,6.854-12.005,10.631-16.464,13.028c-5.829,3.084-7.544,4.464-7.544,6.175
			c0,1.712,1.373,2.745,2.742,2.745c1.72,0,4.464-0.687,6.865-2.059c7.196-3.429,12.686-6.179,17.143-8.92
			c32.923-20.23,51.103-43.893,58.299-64.813c6.858-19.205,8.235-41.153,8.235-60.7c0-17.152-1.029-33.613-1.029-48.355V156.71z"/>
		<path fill="#1C75BC" d="M709.139,183.463c0-8.189-0.674-15.861-1.847-23.071h-47.957c2.392,9.824,3.86,20.79,3.86,33.017
			c0,35.321-6.862,66.525-28.814,85.391c-4.942,4.286-10.058,7.923-15.443,10.995c-6.512,2.157-89.26,28.744-108.365-4.758
			c-3.012-5.794-3.228-11.868-3.228-11.868l-0.028,0.068c-0.248-3.374-0.396-6.724-0.508-9.525
			c-0.345-6.519-0.691-32.924-0.691-69.279v-43.21c0-23.501,0-49.051,0.227-63.026c0.271-2.656,1.213-4.543,1.756-5.441
			c10.484-14.144,56.759-6.4,72.722-3.239c16.733,4.856,33.991,13.372,49.442,28.152c8.9,8.488,19.026,22.133,25.678,41.163V80.065
			c-35.922-22.791-81.773-22.81-117.585-22.81c-14.239,0-49.001,0-75.085,0v94.639h-0.016c0,1.564,0,3.168,0,4.816v60.359
			c0,23.589,0,44.677-0.719,59.841H424.3v-66.147h-42.7v66.147v36.787v5.911h175.622l-0.004-0.005
			c63.229-0.089,98.797-24.373,114.548-40.46C690.97,259.595,709.139,226.675,709.139,183.463z"/>
	</g>
	<rect x="665.07" y="84.275" fill="#58595B" width="66.989" height="66.99"/>
	<rect x="741.878" y="34.07" fill="#1C75BC" width="42.273" height="42.281"/>
	<rect x="693.526" y="41.006" fill="#1C75BC" width="29.193" height="29.19"/>
	<rect x="744.84" y="92.324" fill="#58595B" width="23.894" height="23.887"/>
	<rect x="795.304" y="2.557" fill="#58595B" width="19.591" height="19.592"/>
	<g>
		<g>
			<path fill="#1C75BC" d="M10.449,571.153c0-10.205,0-12.077-0.137-14.227c-0.133-2.291-0.671-3.362-2.888-3.832
				c-0.536-0.136-1.675-0.199-2.616-0.199c-0.739,0-1.145-0.138-1.145-0.606c0-0.47,0.47-0.602,1.479-0.602
				c3.557,0,7.793,0.2,9.673,0.2c2.077,0,6.308-0.2,10.339-0.2c8.395,0,19.61,0,26.93,7.652c3.357,3.493,6.51,9.071,6.51,17.057
				c0,8.46-3.556,14.914-7.313,18.734c-3.092,3.165-10.078,7.926-22.503,7.926c-2.417,0-5.17-0.196-7.721-0.399
				c-2.553-0.208-4.904-0.401-6.58-0.401c-0.738,0-2.221,0-3.829,0.062c-1.546,0-3.291,0.132-4.635,0.132
				c-0.872,0-1.34-0.193-1.34-0.668c0-0.334,0.265-0.535,1.076-0.535c1.004,0,1.81-0.13,2.416-0.268
				c1.345-0.275,1.679-1.746,1.948-3.696c0.335-2.816,0.335-8.129,0.335-14.304V571.153z M18.844,578.548
				c0,7.121,0.066,12.294,0.131,13.571c0.069,1.672,0.203,4.36,0.739,5.1c0.875,1.274,3.49,2.684,8.801,2.684
				c6.849,0,11.415-1.343,15.441-4.836c4.299-3.691,5.646-9.801,5.646-16.723c0-8.523-3.562-14.04-6.447-16.788
				c-6.181-5.906-13.839-6.714-19.077-6.714c-1.345,0-3.83,0.199-4.364,0.471c-0.606,0.268-0.805,0.606-0.805,1.343
				c-0.066,2.285-0.066,8.123-0.066,13.428V578.548z"/>
			<path fill="#1C75BC" d="M72.641,571.153c0-10.205,0-12.077-0.135-14.227c-0.135-2.291-0.67-3.362-2.889-3.832
				c-0.536-0.136-1.676-0.199-2.617-0.199c-0.739,0-1.146-0.138-1.146-0.606c0-0.47,0.472-0.602,1.481-0.602
				c1.811,0,3.759,0.068,5.434,0.068c1.75,0.063,3.297,0.132,4.236,0.132c2.152,0,15.51,0,16.792-0.068
				c1.275-0.132,2.343-0.272,2.886-0.404c0.334-0.07,0.738-0.27,1.074-0.27c0.334,0,0.405,0.27,0.405,0.61
				c0,0.465-0.34,1.271-0.542,4.357c-0.063,0.674-0.199,3.628-0.334,4.435c-0.071,0.337-0.205,0.744-0.67,0.744
				c-0.477,0-0.606-0.344-0.606-0.944c0-0.469-0.069-1.608-0.406-2.419c-0.467-1.209-1.138-2.01-4.498-2.413
				c-1.14-0.136-8.191-0.273-9.535-0.273c-0.336,0-0.47,0.202-0.47,0.677v16.992c0,0.467,0.065,0.732,0.47,0.732
				c1.473,0,9.199,0,10.744-0.132c1.61-0.134,2.62-0.343,3.226-1.008c0.469-0.542,0.74-0.87,1.076-0.87
				c0.264,0,0.465,0.132,0.465,0.533s-0.266,1.477-0.535,4.901c-0.071,1.344-0.266,4.026-0.266,4.497c0,0.543,0,1.275-0.605,1.275
				c-0.475,0-0.604-0.264-0.604-0.601c-0.073-0.675-0.073-1.547-0.271-2.415c-0.335-1.342-1.274-2.354-3.76-2.621
				c-1.274-0.136-7.926-0.201-9.541-0.201c-0.333,0-0.398,0.27-0.398,0.671v5.305c0,2.287-0.064,8.466,0,10.41
				c0.133,4.638,1.211,5.64,8.061,5.64c1.744,0,4.564,0,6.309-0.802c1.744-0.809,2.554-2.22,3.024-4.974
				c0.131-0.729,0.271-1.002,0.733-1.002c0.542,0,0.542,0.526,0.542,1.201c0,1.541-0.542,6.113-0.874,7.452
				c-0.473,1.753-1.075,1.753-3.625,1.753c-5.035,0-8.731-0.134-11.622-0.208c-2.882-0.132-4.964-0.193-6.979-0.193
				c-0.74,0-2.216,0-3.831,0.062c-1.543,0-3.289,0.132-4.637,0.132c-0.867,0-1.338-0.193-1.338-0.668
				c0-0.334,0.265-0.535,1.076-0.535c1.006,0,1.809-0.13,2.414-0.268c1.345-0.275,1.681-1.746,1.951-3.696
				c0.334-2.816,0.334-8.129,0.334-14.304V571.153z"/>
			<path fill="#1C75BC" d="M111.389,601.653c-1.072-0.476-1.277-0.811-1.277-2.287c0-3.687,0.269-7.723,0.334-8.798
				c0.071-1.008,0.271-1.746,0.812-1.746c0.606,0,0.668,0.606,0.668,1.146c0,0.874,0.271,2.283,0.607,3.421
				c1.477,4.969,5.439,6.781,9.6,6.781c6.044,0,9-4.096,9-7.646c0-3.3-1.004-6.38-6.578-10.749l-3.091-2.419
				c-7.387-5.775-9.936-10.479-9.936-15.918c0-7.393,6.176-12.693,15.511-12.693c4.366,0,7.185,0.671,8.929,1.144
				c0.606,0.132,0.94,0.333,0.94,0.804c0,0.873-0.271,2.824-0.271,8.063c0,1.475-0.199,2.014-0.733,2.014
				c-0.471,0-0.671-0.407-0.671-1.213c0-0.607-0.338-2.681-1.751-4.435c-1.003-1.271-2.949-3.285-7.311-3.285
				c-4.973,0-7.998,2.884-7.998,6.919c0,3.09,1.545,5.437,7.121,9.666l1.879,1.413c8.126,6.107,11.011,10.743,11.011,17.126
				c0,3.892-1.476,8.523-6.313,11.676c-3.358,2.159-7.119,2.758-10.674,2.758C117.297,603.394,114.278,602.925,111.389,601.653z"/>
			<path fill="#1C75BC" d="M154.173,571.153c0-10.205,0-12.077-0.134-14.227c-0.135-2.291-0.806-3.431-2.285-3.762
				c-0.735-0.206-1.611-0.27-2.42-0.27c-0.669,0-1.072-0.138-1.072-0.675c0-0.401,0.536-0.533,1.612-0.533
				c2.55,0,6.785,0.2,8.729,0.2c1.68,0,5.64-0.2,8.197-0.2c0.869,0,1.409,0.132,1.409,0.533c0,0.537-0.405,0.675-1.075,0.675
				c-0.675,0-1.207,0.063-2.015,0.199c-1.813,0.34-2.35,1.478-2.485,3.832c-0.133,2.149-0.133,4.021-0.133,14.227v11.825
				c0,6.514,0,11.823,0.269,14.709c0.2,1.811,0.669,3.016,2.685,3.291c0.941,0.138,2.421,0.268,3.424,0.268
				c0.743,0,1.078,0.201,1.078,0.535c0,0.475-0.541,0.668-1.275,0.668c-4.437,0-8.665-0.193-10.475-0.193
				c-1.546,0-5.781,0.193-8.466,0.193c-0.87,0-1.34-0.193-1.34-0.668c0-0.334,0.266-0.535,1.075-0.535
				c1.005,0,1.81-0.13,2.416-0.268c1.343-0.275,1.745-1.413,1.948-3.365c0.335-2.812,0.335-8.121,0.335-14.635V571.153z"/>
			<path fill="#1C75BC" d="M224.62,597.955c0,1.81-0.065,1.947-0.873,2.423c-4.367,2.279-10.947,3.016-16.188,3.016
				c-16.447,0-31.021-7.79-31.021-26.325c0-10.745,5.571-18.266,11.682-21.963c6.449-3.893,12.425-4.361,18.064-4.361
				c4.635,0,10.546,0.803,11.889,1.075c1.412,0.27,3.762,0.671,5.302,0.733c0.81,0.069,0.945,0.343,0.945,0.812
				c0,0.738-0.47,2.617-0.47,11.013c0,1.076-0.204,1.413-0.739,1.413c-0.473,0-0.605-0.337-0.669-0.874
				c-0.208-1.547-0.542-3.692-2.284-5.576c-2.017-2.151-7.388-5.237-14.978-5.237c-3.696,0-8.594,0.27-13.301,4.162
				c-3.759,3.159-6.175,8.192-6.175,16.451c0,14.438,9.199,25.251,23.37,25.251c1.746,0,4.095,0,5.712-0.734
				c1.003-0.474,1.274-1.34,1.274-2.483v-6.318c0-3.354,0-5.907-0.064-7.922c-0.069-2.277-0.675-3.353-2.892-3.823
				c-0.539-0.138-1.678-0.202-2.618-0.202c-0.608,0-1.006-0.14-1.006-0.542c0-0.533,0.464-0.669,1.411-0.669
				c3.489,0,7.719,0.199,9.734,0.199c2.079,0,5.641-0.199,7.861-0.199c0.869,0,1.338,0.136,1.338,0.669
				c0,0.402-0.398,0.542-0.874,0.542c-0.534,0-1.006,0.064-1.813,0.202c-1.812,0.331-2.483,1.471-2.553,3.823
				c-0.066,2.015-0.066,4.7-0.066,8.06V597.955z"/>
			<path fill="#1C75BC" d="M247.122,593.326c0.135,5.233,1.011,6.981,2.349,7.452c1.146,0.399,2.419,0.468,3.492,0.468
				c0.739,0,1.145,0.128,1.145,0.535c0,0.536-0.606,0.668-1.545,0.668c-4.367,0-7.051-0.193-8.333-0.193
				c-0.603,0-3.759,0.193-7.25,0.193c-0.875,0-1.481-0.063-1.481-0.668c0-0.407,0.407-0.535,1.083-0.535
				c0.868,0,2.077-0.068,3.019-0.342c1.745-0.526,2.014-2.484,2.08-8.322l0.604-39.555c0-1.34,0.202-2.283,0.876-2.283
				c0.734,0,1.339,0.876,2.484,2.081c0.801,0.867,11.01,11.616,20.816,21.361c4.565,4.563,13.631,14.234,14.777,15.306h0.334
				l-0.67-30.152c-0.071-4.098-0.671-5.369-2.287-6.039c-1.01-0.405-2.621-0.405-3.558-0.405c-0.807,0-1.076-0.204-1.076-0.606
				c0-0.533,0.74-0.602,1.747-0.602c3.495,0,6.72,0.2,8.131,0.2c0.738,0,3.288-0.2,6.58-0.2c0.872,0,1.542,0.068,1.542,0.602
				c0,0.402-0.403,0.606-1.209,0.606c-0.669,0-1.204,0-2.016,0.199c-1.879,0.541-2.414,1.946-2.483,5.708l-0.735,42.375
				c0,1.479-0.27,2.08-0.875,2.08c-0.742,0-1.545-0.734-2.286-1.477c-4.231-4.03-12.824-12.821-19.811-19.741
				c-7.318-7.253-14.773-15.447-15.979-16.725h-0.206L247.122,593.326z"/>
			<path fill="#1C75BC" d="M330.934,572.636c-2.814-3.76-3.355-6.508-3.419-9.536c-0.071-5.307,4.63-12.355,16.314-12.355
				c3.296,0,6.315,0.671,8.126,1.409c1.145,0.399,1.145,0.941,1.145,1.75c0,2.21-0.539,7.584-0.74,8.596
				c-0.135,1.008-0.405,1.14-0.805,1.14c-0.404,0-0.47-0.27-0.47-1.277c0-1.744-0.468-3.896-1.951-5.642
				c-1.338-1.614-3.694-3.027-7.452-3.027c-2.823,0-7.186,1.957-7.186,7.667c0,6.309,5.78,11.684,11.15,17.657
				c2.279,2.622,10.545,10.069,11.819,11.219c1.34-1.879,3.22-6.245,3.22-10.341c0-1.01-0.264-2.221-1.273-3.092
				c-0.877-0.806-2.28-1.012-3.292-1.012c-0.405,0-0.804-0.133-0.804-0.532c0-0.543,0.534-0.677,1.073-0.677
				c1.609,0,4.296,0.073,8.056,0.469c1.282,0.138,2.285,0.543,2.285,1.346c0,5.169-2.749,11.418-6.579,15.916
				c4.499,3.694,7.519,5.513,9.334,6.588c2.146,1.27,5.841,2.346,7.185,2.346c0.605,0,0.941,0.069,0.941,0.603
				c0,0.407-0.534,0.601-2.015,0.601h-5.17c-7.655,0-10.075-0.729-15.851-5.167c-2.215,2.02-6.715,6.111-15.915,6.111
				c-14.371,0-18.673-8.997-18.673-14.841C319.987,580.693,326.908,574.582,330.934,572.636z M351.955,595.131
				c-3.896-3.357-10.339-9.668-12.084-11.55c-1.746-1.88-6.047-6.716-7.19-8.393c-2.282,1.677-4.631,4.832-4.631,10.211
				c0,8.392,5.911,13.765,12.896,13.765C346.115,599.164,350.545,596.479,351.955,595.131z"/>
			<path fill="#1C75BC" d="M403.001,571.153c0-10.205,0-12.077-0.135-14.227c-0.135-2.291-0.67-3.362-2.888-3.832
				c-0.537-0.136-1.674-0.199-2.617-0.199c-0.739,0-1.141-0.138-1.141-0.606c0-0.47,0.466-0.602,1.476-0.602
				c3.563,0,7.792,0.2,9.669,0.2c2.082,0,6.318-0.2,10.341-0.2c8.396,0,19.61,0,26.932,7.652c3.359,3.493,6.513,9.071,6.513,17.057
				c0,8.46-3.558,14.914-7.318,18.734c-3.089,3.165-10.076,7.926-22.503,7.926c-2.413,0-5.167-0.196-7.718-0.399
				c-2.556-0.208-4.901-0.401-6.583-0.401c-0.737,0-2.219,0-3.828,0.062c-1.545,0-3.29,0.132-4.637,0.132
				c-0.869,0-1.338-0.193-1.338-0.668c0-0.334,0.27-0.535,1.077-0.535c1.003,0,1.806-0.13,2.412-0.268
				c1.344-0.275,1.68-1.746,1.95-3.696c0.335-2.816,0.335-8.129,0.335-14.304V571.153z M411.397,578.548
				c0,7.121,0.064,12.294,0.135,13.571c0.064,1.672,0.198,4.36,0.732,5.1c0.877,1.274,3.49,2.684,8.802,2.684
				c6.851,0,11.415-1.343,15.446-4.836c4.299-3.691,5.639-9.801,5.639-16.723c0-8.523-3.561-14.04-6.445-16.788
				c-6.18-5.906-13.834-6.714-19.074-6.714c-1.341,0-3.826,0.199-4.368,0.471c-0.604,0.268-0.804,0.606-0.804,1.343
				c-0.064,2.285-0.064,8.123-0.064,13.428V578.548z"/>
			<path fill="#1C75BC" d="M465.192,571.153c0-10.205,0-12.077-0.131-14.227c-0.138-2.291-0.673-3.362-2.893-3.832
				c-0.535-0.136-1.68-0.199-2.619-0.199c-0.736,0-1.139-0.138-1.139-0.606c0-0.47,0.469-0.602,1.477-0.602
				c1.813,0,3.758,0.068,5.443,0.068c1.743,0.063,3.286,0.132,4.23,0.132c2.143,0,15.507,0,16.784-0.068
				c1.272-0.132,2.354-0.272,2.894-0.404c0.334-0.07,0.733-0.27,1.069-0.27c0.334,0,0.398,0.27,0.398,0.61
				c0,0.465-0.333,1.271-0.527,4.357c-0.076,0.674-0.207,3.628-0.337,4.435c-0.075,0.337-0.204,0.744-0.681,0.744
				c-0.463,0-0.603-0.344-0.603-0.944c0-0.469-0.067-1.608-0.4-2.419c-0.466-1.209-1.134-2.01-4.499-2.413
				c-1.14-0.136-8.195-0.273-9.533-0.273c-0.335,0-0.473,0.202-0.473,0.677v16.992c0,0.467,0.072,0.732,0.473,0.732
				c1.479,0,9.202,0,10.741-0.132c1.616-0.134,2.621-0.343,3.227-1.008c0.465-0.542,0.735-0.87,1.067-0.87
				c0.27,0,0.477,0.132,0.477,0.533s-0.271,1.477-0.541,4.901c-0.065,1.344-0.268,4.026-0.268,4.497c0,0.543,0,1.275-0.608,1.275
				c-0.463,0-0.604-0.264-0.604-0.601c-0.066-0.675-0.066-1.547-0.259-2.415c-0.334-1.342-1.276-2.354-3.762-2.621
				c-1.276-0.136-7.926-0.201-9.537-0.201c-0.334,0-0.406,0.27-0.406,0.671v5.305c0,2.287-0.07,8.466,0,10.41
				c0.138,4.638,1.211,5.64,8.062,5.64c1.743,0,4.563,0,6.313-0.802c1.739-0.809,2.553-2.22,3.018-4.974
				c0.136-0.729,0.268-1.002,0.741-1.002c0.544,0,0.544,0.526,0.544,1.201c0,1.541-0.544,6.113-0.878,7.452
				c-0.478,1.753-1.079,1.753-3.631,1.753c-5.032,0-8.726-0.134-11.616-0.208c-2.884-0.132-4.967-0.193-6.986-0.193
				c-0.734,0-2.213,0-3.822,0.062c-1.548,0-3.292,0.132-4.637,0.132c-0.872,0-1.341-0.193-1.341-0.668
				c0-0.334,0.264-0.535,1.07-0.535c1.01,0,1.813-0.13,2.42-0.268c1.342-0.275,1.679-1.746,1.945-3.696
				c0.339-2.816,0.339-8.129,0.339-14.304V571.153z"/>
			<path fill="#1C75BC" d="M501.79,558.265c-1.545-3.692-2.689-4.429-5.101-5.1c-1.012-0.27-2.083-0.27-2.623-0.27
				c-0.604,0-0.801-0.204-0.801-0.606c0-0.533,0.736-0.602,1.74-0.602c3.568,0,7.39,0.2,9.749,0.2c1.671,0,4.896-0.2,8.252-0.2
				c0.813,0,1.547,0.132,1.547,0.602c0,0.469-0.4,0.606-1.008,0.606c-1.078,0-2.083,0.063-2.628,0.469
				c-0.461,0.328-0.666,0.805-0.666,1.409c0,0.876,0.606,2.752,1.543,5.173l11.551,30.484h0.273
				c2.881-7.379,11.613-29.007,13.224-33.438c0.347-0.88,0.604-1.888,0.604-2.489c0-0.533-0.258-1.069-0.865-1.275
				c-0.81-0.27-1.813-0.333-2.69-0.333c-0.604,0-1.144-0.07-1.144-0.537c0-0.539,0.607-0.671,1.881-0.671
				c3.357,0,6.18,0.2,7.053,0.2c1.146,0,4.302-0.2,6.31-0.2c0.877,0,1.418,0.132,1.418,0.602c0,0.469-0.412,0.606-1.08,0.606
				c-0.671,0-2.076,0-3.288,0.797c-0.871,0.612-1.876,1.752-3.694,6.049c-2.613,6.318-4.427,9.941-8.06,18.2
				c-4.301,9.811-7.452,17.125-8.937,20.479c-1.736,3.897-2.15,4.974-3.078,4.974c-0.875,0-1.288-0.944-2.559-4.092L501.79,558.265z
				"/>
			<path fill="#1C75BC" d="M556.593,571.153c0-10.205,0-12.077-0.13-14.227c-0.141-2.291-0.666-3.362-2.894-3.832
				c-0.531-0.136-1.676-0.199-2.616-0.199c-0.734,0-1.146-0.138-1.146-0.606c0-0.47,0.477-0.602,1.479-0.602
				c1.818,0,3.763,0.068,5.447,0.068c1.741,0.063,3.283,0.132,4.225,0.132c2.147,0,15.518,0,16.793-0.068
				c1.271-0.132,2.356-0.272,2.886-0.404c0.333-0.07,0.743-0.27,1.075-0.27c0.339,0,0.399,0.27,0.399,0.61
				c0,0.465-0.33,1.271-0.537,4.357c-0.065,0.674-0.194,3.628-0.336,4.435c-0.065,0.337-0.192,0.744-0.672,0.744
				c-0.459,0-0.601-0.344-0.601-0.944c0-0.469-0.064-1.608-0.401-2.419c-0.479-1.209-1.144-2.01-4.508-2.413
				c-1.129-0.136-8.186-0.273-9.53-0.273c-0.329,0-0.474,0.202-0.474,0.677v16.992c0,0.467,0.078,0.732,0.474,0.732
				c1.482,0,9.199,0,10.743-0.132c1.612-0.134,2.624-0.343,3.232-1.008c0.464-0.542,0.729-0.87,1.064-0.87
				c0.276,0,0.479,0.132,0.479,0.533s-0.271,1.477-0.546,4.901c-0.059,1.344-0.27,4.026-0.27,4.497c0,0.543,0,1.275-0.598,1.275
				c-0.47,0-0.61-0.264-0.61-0.601c-0.063-0.675-0.063-1.547-0.269-2.415c-0.333-1.342-1.275-2.354-3.761-2.621
				c-1.271-0.136-7.921-0.201-9.532-0.201c-0.33,0-0.408,0.27-0.408,0.671v5.305c0,2.287-0.064,8.466,0,10.41
				c0.145,4.638,1.211,5.64,8.063,5.64c1.744,0,4.57,0,6.307-0.802c1.75-0.809,2.564-2.22,3.028-4.974
				c0.136-0.729,0.267-1.002,0.742-1.002c0.529,0,0.529,0.526,0.529,1.201c0,1.541-0.529,6.113-0.873,7.452
				c-0.462,1.753-1.068,1.753-3.62,1.753c-5.033,0-8.73-0.134-11.615-0.208c-2.896-0.132-4.974-0.193-6.993-0.193
				c-0.733,0-2.214,0-3.823,0.062c-1.544,0-3.295,0.132-4.635,0.132c-0.877,0-1.342-0.193-1.342-0.668
				c0-0.334,0.262-0.535,1.072-0.535c1.004,0,1.815-0.13,2.418-0.268c1.343-0.275,1.678-1.746,1.949-3.696
				c0.332-2.816,0.332-8.129,0.332-14.304V571.153z"/>
			<path fill="#1C75BC" d="M607.442,582.979c0,8.598,0,13.229,1.398,14.439c1.144,1.002,2.892,1.482,8.129,1.482
				c3.563,0,6.179-0.071,7.857-1.888c0.807-0.872,1.609-2.752,1.751-4.029c0.063-0.606,0.198-1.006,0.731-1.006
				c0.475,0,0.54,0.335,0.54,1.147c0,0.734-0.466,5.775-1.003,7.718c-0.41,1.475-0.748,1.814-4.234,1.814
				c-4.833,0-8.333-0.134-11.35-0.208c-3.023-0.132-5.442-0.193-8.188-0.193c-0.746,0-2.224,0-3.832,0.062
				c-1.547,0-3.287,0.132-4.64,0.132c-0.863,0-1.341-0.193-1.341-0.668c0-0.334,0.274-0.535,1.08-0.535
				c1.009,0,1.808-0.13,2.412-0.268c1.349-0.275,1.686-1.746,1.955-3.696c0.337-2.816,0.337-8.129,0.337-14.304v-11.825
				c0-10.205,0-12.077-0.143-14.227c-0.126-2.291-0.669-3.362-2.885-3.832c-0.537-0.136-1.339-0.199-2.209-0.199
				c-0.748,0-1.149-0.138-1.149-0.606c0-0.47,0.475-0.602,1.477-0.602c3.159,0,7.394,0.2,9.197,0.2c1.624,0,6.518-0.2,9.14-0.2
				c0.937,0,1.408,0.132,1.408,0.602c0,0.469-0.404,0.606-1.212,0.606c-0.733,0-1.805,0.063-2.617,0.199
				c-1.814,0.34-2.358,1.478-2.484,3.832c-0.127,2.149-0.127,4.021-0.127,14.227V582.979z"/>
			<path fill="#1C75BC" d="M632.024,577.068c0-11.483,7.58-26.324,27.731-26.324c16.714,0,27.135,9.741,27.135,25.115
				c0,15.378-10.747,27.534-27.806,27.534C639.81,603.394,632.024,588.96,632.024,577.068z M677.475,578.344
				c0-15.042-8.652-24.373-19.672-24.373c-7.72,0-16.527,4.294-16.527,21.019c0,13.971,7.732,25.051,20.632,25.051
				C666.605,600.04,677.475,597.751,677.475,578.344z"/>
			<path fill="#1C75BC" d="M700.924,571.153c0-10.205,0-12.077-0.133-14.227c-0.14-2.291-0.669-3.362-2.894-3.832
				c-0.529-0.136-1.679-0.199-2.615-0.199c-0.734,0-1.146-0.138-1.146-0.606c0-0.47,0.475-0.602,1.482-0.602
				c3.555,0,7.79,0.2,9.667,0.2c2.758,0,6.65-0.2,9.736-0.2c8.397,0,11.423,2.816,12.489,3.828c1.486,1.411,3.364,4.431,3.364,7.991
				c0,9.536-6.978,16.254-16.523,16.254c-0.333,0-1.07,0-1.402-0.073c-0.343-0.064-0.812-0.138-0.812-0.607
				c0-0.532,0.469-0.736,1.881-0.736c3.762,0,9.004-4.23,9.004-11.076c0-2.216-0.21-6.72-3.972-10.079
				c-2.404-2.212-5.163-2.616-6.709-2.616c-1.018,0-2.02,0.063-2.626,0.27c-0.327,0.135-0.522,0.538-0.522,1.271v26.865
				c0,6.175,0,11.487,0.334,14.371c0.188,1.883,0.59,3.354,2.61,3.629c0.943,0.138,2.42,0.268,3.427,0.268
				c0.733,0,1.082,0.201,1.082,0.535c0,0.475-0.543,0.668-1.291,0.668c-4.426,0-8.655-0.193-10.401-0.193
				c-1.546,0-5.781,0.193-8.462,0.193c-0.874,0-1.339-0.193-1.339-0.668c0-0.334,0.26-0.535,1.065-0.535
				c1.004,0,1.82-0.13,2.427-0.268c1.341-0.275,1.671-1.746,1.942-3.696c0.336-2.816,0.336-8.129,0.336-14.304V571.153z"/>
			<path fill="#1C75BC" d="M747.408,552.49c0.189-1.146,0.592-1.746,1.129-1.746c0.543,0,0.941,0.343,1.813,2.081l18.339,37.342
				l18.262-37.809c0.54-1.077,0.872-1.614,1.479-1.614c0.606,0,1.008,0.671,1.213,2.081l6.112,41.102
				c0.606,4.233,1.275,6.178,3.28,6.776c1.953,0.612,3.301,0.671,4.168,0.671c0.601,0,1.074,0.073,1.074,0.475
				c0,0.537-0.807,0.74-1.745,0.74c-1.68,0-10.949-0.14-13.628-0.333c-1.547-0.136-1.954-0.34-1.954-0.742
				c0-0.336,0.271-0.535,0.745-0.735c0.4-0.143,0.606-1.014,0.332-2.886L784,568.676h-0.271l-14.639,29.949
				c-1.547,3.156-1.883,3.761-2.484,3.761c-0.607,0-1.271-1.344-2.344-3.357c-1.621-3.085-6.926-13.359-7.727-15.242
				c-0.604-1.409-4.641-9.34-6.99-14.373h-0.261l-3.5,26.19c-0.132,1.214-0.196,2.084-0.196,3.155c0,1.281,0.864,1.877,2.009,2.146
				c1.21,0.273,2.152,0.342,2.823,0.342c0.543,0,0.999,0.128,0.999,0.475c0,0.597-0.604,0.729-1.605,0.729
				c-2.818,0-5.848-0.193-7.043-0.193c-1.27,0-4.508,0.193-6.658,0.193c-0.672,0-1.208-0.132-1.208-0.729
				c0-0.347,0.404-0.475,1.075-0.475c0.543,0,1.007,0,2.013-0.204c1.88-0.406,2.423-3.016,2.753-5.301L747.408,552.49z"/>
			<path fill="#1C75BC" d="M814.963,571.153c0-10.205,0-12.077-0.137-14.227c-0.128-2.291-0.67-3.362-2.887-3.832
				c-0.537-0.136-1.671-0.199-2.614-0.199c-0.743,0-1.145-0.138-1.145-0.606c0-0.47,0.473-0.602,1.481-0.602
				c1.818,0,3.761,0.068,5.431,0.068c1.758,0.063,3.297,0.132,4.241,0.132c2.146,0,15.511,0,16.789-0.068
				c1.275-0.132,2.347-0.272,2.884-0.404c0.337-0.07,0.739-0.27,1.071-0.27s0.411,0.27,0.411,0.61c0,0.465-0.34,1.271-0.544,4.357
				c-0.063,0.674-0.199,3.628-0.332,4.435c-0.063,0.337-0.205,0.744-0.671,0.744c-0.473,0-0.606-0.344-0.606-0.944
				c0-0.469-0.062-1.608-0.396-2.419c-0.479-1.209-1.149-2.01-4.508-2.413c-1.144-0.136-8.189-0.273-9.531-0.273
				c-0.341,0-0.473,0.202-0.473,0.677v16.992c0,0.467,0.063,0.732,0.473,0.732c1.471,0,9.199,0,10.744-0.132
				c1.609-0.134,2.611-0.343,3.218-1.008c0.473-0.542,0.748-0.87,1.079-0.87c0.27,0,0.466,0.132,0.466,0.533
				s-0.27,1.477-0.543,4.901c-0.064,1.344-0.254,4.026-0.254,4.497c0,0.543,0,1.275-0.606,1.275c-0.475,0-0.606-0.264-0.606-0.601
				c-0.064-0.675-0.064-1.547-0.268-2.415c-0.34-1.342-1.278-2.354-3.767-2.621c-1.269-0.136-7.928-0.201-9.536-0.201
				c-0.337,0-0.399,0.27-0.399,0.671v5.305c0,2.287-0.07,8.466,0,10.41c0.132,4.638,1.205,5.64,8.057,5.64
				c1.741,0,4.573,0,6.313-0.802c1.751-0.809,2.547-2.22,3.023-4.974c0.131-0.729,0.271-1.002,0.737-1.002
				c0.539,0,0.539,0.526,0.539,1.201c0,1.541-0.539,6.113-0.877,7.452c-0.464,1.753-1.072,1.753-3.628,1.753
				c-5.036,0-8.734-0.134-11.618-0.208c-2.888-0.132-4.969-0.193-6.978-0.193c-0.744,0-2.217,0-3.838,0.062
				c-1.541,0-3.281,0.132-4.621,0.132c-0.877,0-1.353-0.193-1.353-0.668c0-0.334,0.271-0.535,1.082-0.535
				c1.003,0,1.815-0.13,2.405-0.268c1.355-0.275,1.688-1.746,1.963-3.696c0.326-2.816,0.326-8.129,0.326-14.304V571.153z"/>
			<path fill="#1C75BC" d="M861.167,593.326c0.143,5.233,1.002,6.981,2.354,7.452c1.139,0.399,2.408,0.468,3.489,0.468
				c0.738,0,1.15,0.128,1.15,0.535c0,0.536-0.605,0.668-1.547,0.668c-4.364,0-7.055-0.193-8.33-0.193
				c-0.604,0-3.761,0.193-7.249,0.193c-0.873,0-1.486-0.063-1.486-0.668c0-0.407,0.402-0.535,1.072-0.535
				c0.88,0,2.088-0.068,3.025-0.342c1.751-0.526,2.012-2.484,2.089-8.322l0.602-39.555c0-1.34,0.196-2.283,0.865-2.283
				c0.745,0,1.35,0.876,2.485,2.081c0.813,0.867,11.021,11.616,20.821,21.361c4.566,4.563,13.638,14.234,14.771,15.306h0.344
				l-0.666-30.152c-0.08-4.098-0.686-5.369-2.289-6.039c-1.008-0.405-2.62-0.405-3.561-0.405c-0.813,0-1.08-0.204-1.08-0.606
				c0-0.533,0.749-0.602,1.752-0.602c3.489,0,6.708,0.2,8.127,0.2c0.732,0,3.291-0.2,6.576-0.2c0.875,0,1.544,0.068,1.544,0.602
				c0,0.402-0.399,0.606-1.206,0.606c-0.671,0-1.213,0-2.017,0.199c-1.871,0.541-2.415,1.946-2.481,5.708l-0.744,42.375
				c0,1.479-0.26,2.08-0.865,2.08c-0.743,0-1.546-0.734-2.288-1.477c-4.231-4.03-12.828-12.821-19.807-19.741
				c-7.325-7.253-14.776-15.447-15.989-16.725h-0.195L861.167,593.326z"/>
			<path fill="#1C75BC" d="M929.939,555.444l-10.005,0.268c-3.891,0.138-5.506,0.465-6.518,1.951
				c-0.664,1.008-1.002,1.816-1.144,2.348c-0.128,0.537-0.333,0.806-0.734,0.806c-0.46,0-0.604-0.331-0.604-1.075
				c0-1.07,1.274-7.188,1.409-7.722c0.197-0.874,0.408-1.275,0.804-1.275c0.539,0,1.212,0.671,2.896,0.803
				c1.95,0.209,4.499,0.341,6.712,0.341h26.589c2.151,0,3.632-0.2,4.635-0.341c1.017-0.202,1.545-0.334,1.819-0.334
				c0.475,0,0.537,0.407,0.537,1.409c0,1.407-0.205,6.049-0.205,7.79c-0.069,0.674-0.206,1.075-0.606,1.075
				c-0.528,0-0.669-0.333-0.733-1.341l-0.067-0.742c-0.138-1.741-1.953-3.617-7.929-3.755l-8.459-0.205v27.534
				c0,6.175,0,11.487,0.334,14.371c0.205,1.883,0.605,3.354,2.616,3.629c0.947,0.138,2.42,0.268,3.432,0.268
				c0.739,0,1.071,0.201,1.071,0.535c0,0.475-0.539,0.668-1.271,0.668c-4.438,0-8.666-0.193-10.548-0.193
				c-1.544,0-5.77,0.193-8.46,0.193c-0.875,0-1.339-0.193-1.339-0.668c0-0.334,0.259-0.535,1.07-0.535
				c1.001,0,1.814-0.13,2.422-0.268c1.338-0.275,1.733-1.746,1.945-3.696c0.331-2.816,0.331-8.129,0.331-14.304V555.444z"/>
		</g>
		<g>
			<path fill="#1C75BC" d="M19.629,461.253c0-16.725,0-19.81-0.217-23.33c-0.218-3.736-1.098-5.506-4.731-6.27
				c-0.878-0.22-2.751-0.33-4.294-0.33c-1.203,0-1.865-0.223-1.865-0.984c0-0.777,0.767-0.998,2.422-0.998
				c5.829,0,12.763,0.331,15.622,0.331c2.639,0,9.573-0.331,13.868-0.331c1.534,0,2.31,0.221,2.31,0.998
				c0,0.762-0.663,0.984-1.986,0.984c-1.203,0-1.864,0.11-3.188,0.33c-2.971,0.548-3.851,2.423-4.068,6.27
				c-0.218,3.521-0.218,6.605-0.218,23.33v20.361c0,4.729,0.323,10.011,0.323,15.508c0,6.277-0.436,13.317-2.64,19.48
				c-2.309,6.714-8.138,14.304-18.705,20.801c-1.427,0.882-3.187,1.76-5.497,2.856c-0.775,0.444-1.654,0.665-2.203,0.665
				c-0.445,0-0.88-0.333-0.88-0.88c0-0.552,0.549-0.994,2.422-1.99c1.429-0.762,3.083-1.977,5.28-4.181
				c8.363-8.464,8.249-19.472,8.249-41.042V461.253z"/>
			<path fill="#1C75BC" d="M69.809,484.471c-0.548,0-0.766,0.22-0.985,0.88l-5.941,15.081c-1.104,2.743-1.654,5.383-1.654,6.709
				c0,1.984,0.993,3.413,4.398,3.413h1.655c1.316,0,1.647,0.221,1.647,0.88c0,0.88-0.662,1.095-1.865,1.095
				c-3.528,0-8.257-0.327-11.665-0.327c-1.212,0-7.266,0.327-12.989,0.327c-1.429,0-2.091-0.215-2.091-1.095
				c0-0.659,0.445-0.88,1.324-0.88c0.985,0,2.527-0.114,3.406-0.226c5.063-0.654,7.153-4.399,9.357-9.896l27.616-68.23
				c1.324-3.187,1.985-4.401,3.083-4.401c0.995,0,1.656,0.994,2.754,3.523c2.64,6.054,20.246,50.066,27.292,66.791
				c4.174,9.906,7.371,11.447,9.681,11.995c1.646,0.33,3.301,0.444,4.617,0.444c0.88,0,1.43,0.103,1.43,0.88
				c0,0.88-0.986,1.095-5.054,1.095c-3.964,0-11.997,0-20.803-0.215c-1.978-0.112-3.302-0.112-3.302-0.88
				c0-0.659,0.444-0.88,1.541-0.994c0.775-0.22,1.542-1.21,0.994-2.525l-8.799-22.676c-0.226-0.548-0.557-0.768-1.106-0.768H69.809z
				 M92.259,478.965c0.55,0,0.662-0.324,0.55-0.651l-9.897-27.069c-0.112-0.445-0.227-0.994-0.557-0.994s-0.548,0.549-0.653,0.994
				l-10.133,26.953c-0.104,0.443,0,0.768,0.445,0.768H92.259z"/>
			<path fill="#1C75BC" d="M148.719,430.666c0.323-1.872,0.984-2.866,1.866-2.866c0.879,0,1.541,0.549,2.97,3.413l30.045,61.18
				l29.926-61.951c0.879-1.762,1.438-2.642,2.422-2.642c0.992,0,1.655,1.101,1.986,3.413l10.01,67.345
				c0.983,6.934,2.091,10.123,5.392,11.116c3.188,0.982,5.392,1.101,6.821,1.101c0.993,0,1.76,0.112,1.76,0.762
				c0,0.88-1.325,1.213-2.856,1.213c-2.754,0-17.938-0.221-22.338-0.548c-2.535-0.22-3.197-0.547-3.197-1.214
				c0-0.548,0.443-0.878,1.211-1.207c0.662-0.219,0.993-1.647,0.549-4.733l-6.595-47.862h-0.444l-23.993,49.076
				c-2.526,5.173-3.076,6.155-4.068,6.155s-2.09-2.196-3.851-5.495c-2.639-5.063-11.334-21.903-12.658-24.978
				c-0.993-2.316-7.588-15.298-11.438-23.557h-0.444l-5.724,42.916c-0.218,1.984-0.323,3.413-0.323,5.173
				c0,2.093,1.429,3.086,3.293,3.52c1.986,0.444,3.519,0.559,4.625,0.559c0.881,0,1.647,0.221,1.647,0.768
				c0,0.992-0.986,1.207-2.64,1.207c-4.618,0-9.574-0.327-11.553-0.327c-2.09,0-7.371,0.327-10.897,0.327
				c-1.099,0-1.979-0.215-1.979-1.207c0-0.547,0.662-0.768,1.759-0.768c0.881,0,1.656,0,3.302-0.334
				c3.084-0.658,3.965-4.952,4.514-8.692L148.719,430.666z"/>
			<path fill="#1C75BC" d="M259.419,461.253c0-16.725,0-19.81-0.22-23.33c-0.218-3.736-1.104-5.506-4.729-6.27
				c-0.88-0.22-2.754-0.33-4.296-0.33c-1.211,0-1.865-0.223-1.865-0.984c0-0.777,0.768-0.998,2.415-0.998
				c2.971,0,6.167,0.116,8.912,0.116c2.865,0.104,5.392,0.215,6.933,0.215c3.519,0,25.42,0,27.511-0.11
				c2.091-0.221,3.851-0.445,4.731-0.661c0.548-0.106,1.211-0.434,1.761-0.434c0.556,0,0.661,0.434,0.661,0.99
				c0,0.764-0.549,2.092-0.88,7.15c-0.112,1.099-0.33,5.94-0.549,7.256c-0.112,0.555-0.33,1.214-1.098,1.214
				c-0.775,0-0.993-0.549-0.993-1.541c0-0.768-0.112-2.64-0.662-3.966c-0.768-1.975-1.873-3.291-7.37-3.956
				c-1.873-0.217-13.426-0.443-15.629-0.443c-0.55,0-0.768,0.331-0.768,1.108v27.833c0,0.773,0.114,1.209,0.768,1.209
				c2.42,0,15.07,0,17.606-0.215c2.639-0.221,4.294-0.553,5.288-1.647c0.767-0.89,1.21-1.429,1.759-1.429
				c0.437,0,0.768,0.216,0.768,0.87c0,0.661-0.445,2.421-0.881,8.038c-0.113,2.198-0.436,6.598-0.436,7.375
				c0,0.876,0,2.089-0.993,2.089c-0.774,0-0.993-0.445-0.993-0.994c-0.113-1.095-0.113-2.525-0.437-3.966
				c-0.556-2.195-2.099-3.847-6.167-4.283c-2.09-0.221-12.98-0.331-15.628-0.331c-0.54,0-0.654,0.434-0.654,1.101v8.693
				c0,3.744-0.113,13.867,0,17.056c0.218,7.59,1.978,9.243,13.199,9.243c2.865,0,7.492,0,10.348-1.325
				c2.858-1.314,4.182-3.625,4.949-8.143c0.217-1.202,0.443-1.647,1.211-1.647c0.879,0,0.879,0.878,0.879,1.975
				c0,2.537-0.879,10.019-1.428,12.215c-0.768,2.866-1.76,2.866-5.94,2.866c-8.26,0-14.306-0.215-19.036-0.333
				c-4.738-0.215-8.146-0.327-11.447-0.327c-1.211,0-3.632,0-6.273,0.112c-2.526,0-5.392,0.215-7.596,0.215
				c-1.427,0-2.195-0.327-2.195-1.095c0-0.547,0.436-0.88,1.759-0.88c1.647,0,2.971-0.226,3.964-0.444
				c2.196-0.436,2.744-2.856,3.188-6.055c0.551-4.617,0.551-13.312,0.551-23.433V461.253z"/>
			<path fill="#1C75BC" d="M322.917,511.209c-1.761-0.77-2.09-1.316-2.09-3.741c0-6.053,0.444-12.654,0.548-14.414
				c0.113-1.647,0.444-2.857,1.324-2.857c0.984,0,1.098,0.982,1.098,1.874c0,1.427,0.444,3.735,0.993,5.607
				c2.422,8.137,8.913,11.106,15.733,11.106c9.897,0,14.741-6.704,14.741-12.533c0-5.394-1.646-10.454-10.785-17.61l-5.063-3.959
				c-12.1-9.463-16.281-17.163-16.281-26.079c0-12.108,10.123-20.803,25.419-20.803c7.153,0,11.771,1.101,14.637,1.872
				c0.992,0.222,1.541,0.549,1.541,1.316c0,1.429-0.443,4.626-0.443,13.209c0,2.421-0.331,3.301-1.21,3.301
				c-0.768,0-1.098-0.659-1.098-1.976c0-0.994-0.549-4.399-2.866-7.268c-1.648-2.092-4.835-5.393-11.989-5.393
				c-8.144,0-13.102,4.733-13.102,11.335c0,5.061,2.536,8.914,11.666,15.849l3.083,2.309c13.319,10.019,18.05,17.603,18.05,28.057
				c0,6.387-2.423,13.975-10.341,19.15c-5.505,3.521-11.665,4.512-17.501,4.512C332.595,514.073,327.647,513.306,322.917,511.209z"
				/>
			<path fill="#1C75BC" d="M449.463,464.329c0.33,0,0.662-0.217,0.662-0.768v-2.309c0-16.725,0-19.81-0.226-23.33
				c-0.218-3.736-1.098-5.506-4.73-6.27c-0.88-0.22-2.745-0.33-4.287-0.33c-1.21,0-1.874-0.223-1.874-0.984
				c0-0.777,0.768-0.998,2.31-0.998c5.941,0,12.875,0.331,15.846,0.331c2.64,0,9.575-0.331,13.868-0.331
				c1.535,0,2.311,0.221,2.311,0.998c0,0.762-0.663,0.984-1.987,0.984c-0.88,0-1.864,0.11-3.188,0.33
				c-2.972,0.548-3.852,2.423-4.068,6.27c-0.219,3.521-0.219,6.605-0.219,23.33v19.369c0,10.121,0,18.815,0.549,23.545
				c0.331,3.086,0.985,5.507,4.295,5.942c1.534,0.219,3.956,0.444,5.602,0.444c1.211,0,1.768,0.333,1.768,0.88
				c0,0.768-0.879,1.095-2.203,1.095c-7.152,0-14.086-0.327-17.171-0.327c-2.526,0-9.461,0.327-13.746,0.327
				c-1.543,0-2.319-0.327-2.319-1.095c0-0.547,0.445-0.88,1.769-0.88c1.646,0,2.971-0.226,3.955-0.444
				c2.204-0.436,2.753-2.856,3.197-6.055c0.549-4.617,0.549-13.312,0.549-23.433v-9.684c0-0.44-0.332-0.657-0.662-0.657h-42.034
				c-0.331,0-0.662,0.101-0.662,0.657v9.684c0,10.121,0,18.815,0.548,23.545c0.333,3.086,0.995,5.507,4.296,5.942
				c1.542,0.219,3.956,0.444,5.611,0.444c1.209,0,1.758,0.333,1.758,0.88c0,0.768-0.88,1.095-2.203,1.095
				c-7.152,0-14.086-0.327-17.162-0.327c-2.527,0-9.46,0.327-13.869,0.327c-1.428,0-2.195-0.327-2.195-1.095
				c0-0.547,0.436-0.88,1.759-0.88c1.647,0,2.971-0.226,3.956-0.444c2.204-0.436,2.752-2.856,3.197-6.055
				c0.549-4.617,0.549-13.312,0.549-23.433v-19.369c0-16.725,0-19.81-0.218-23.33c-0.217-3.736-1.106-5.506-4.73-6.27
				c-0.879-0.22-2.752-0.33-4.294-0.33c-1.211,0-1.873-0.223-1.873-0.984c0-0.777,0.775-0.998,2.316-0.998
				c5.943,0,12.876,0.331,15.847,0.331c2.633,0,9.566-0.331,13.86-0.331c1.542,0,2.309,0.221,2.309,0.998
				c0,0.762-0.661,0.984-1.977,0.984c-0.88,0-1.873,0.11-3.189,0.33c-2.979,0.548-3.851,2.423-4.076,6.27
				c-0.219,3.521-0.219,6.605-0.219,23.33v2.309c0,0.551,0.332,0.768,0.662,0.768H449.463z"/>
			<path fill="#1C75BC" d="M504.381,484.471c-0.556,0-0.777,0.22-0.992,0.88l-5.94,15.081c-1.101,2.743-1.648,5.383-1.648,6.709
				c0,1.984,0.984,3.413,4.403,3.413h1.641c1.315,0,1.658,0.221,1.658,0.88c0,0.88-0.665,1.095-1.873,1.095
				c-3.521,0-8.249-0.327-11.667-0.327c-1.208,0-7.267,0.327-12.979,0.327c-1.438,0-2.099-0.215-2.099-1.095
				c0-0.659,0.444-0.88,1.325-0.88c0.991,0,2.534-0.114,3.405-0.226c5.072-0.654,7.155-4.399,9.355-9.896l27.623-68.23
				c1.315-3.187,1.982-4.401,3.078-4.401c0.99,0,1.656,0.994,2.752,3.523c2.64,6.054,20.249,50.066,27.285,66.791
				c4.19,9.906,7.378,11.447,9.687,11.995c1.658,0.33,3.299,0.444,4.627,0.444c0.879,0,1.427,0.103,1.427,0.88
				c0,0.88-0.992,1.095-5.061,1.095c-3.961,0-11.995,0-20.792-0.215c-1.985-0.112-3.307-0.112-3.307-0.88
				c0-0.659,0.442-0.88,1.535-0.994c0.779-0.22,1.541-1.21,0.994-2.525l-8.798-22.676c-0.225-0.548-0.553-0.768-1.105-0.768H504.381
				z M526.833,478.965c0.537,0,0.649-0.324,0.537-0.651l-9.897-27.069c-0.113-0.445-0.226-0.994-0.546-0.994
				c-0.335,0-0.549,0.549-0.662,0.994l-10.122,26.953c-0.117,0.443,0,0.768,0.435,0.768H526.833z"/>
			<path fill="#1C75BC" d="M643.8,505.159c0,2.974-0.112,3.188-1.43,3.966c-7.147,3.736-17.935,4.948-26.521,4.948
				c-26.959,0-50.837-12.771-50.837-43.135c0-17.603,9.13-29.93,19.148-35.984c10.559-6.387,20.356-7.154,29.596-7.154
				c7.594,0,17.278,1.316,19.481,1.762c2.308,0.446,6.165,1.104,8.689,1.214c1.325,0.11,1.544,0.548,1.544,1.313
				c0,1.218-0.777,4.293-0.777,18.049c0,1.76-0.324,2.309-1.203,2.309c-0.772,0-0.992-0.549-1.104-1.429
				c-0.332-2.527-0.881-6.053-3.736-9.127c-3.302-3.521-12.102-8.584-24.542-8.584c-6.055,0-14.078,0.434-21.785,6.822
				c-6.162,5.169-10.129,13.422-10.129,26.952c0,23.662,15.083,41.381,38.291,41.381c2.865,0,6.717,0,9.358-1.209
				c1.652-0.777,2.088-2.206,2.088-4.078v-10.343c0-5.496,0-9.677-0.102-12.978c-0.113-3.745-1.104-5.507-4.733-6.284
				c-0.887-0.215-2.748-0.323-4.293-0.323c-0.994,0-1.648-0.223-1.648-0.874c0-0.88,0.768-1.111,2.301-1.111
				c5.724,0,12.655,0.334,15.962,0.334c3.415,0,9.241-0.334,12.875-0.334c1.428,0,2.199,0.231,2.199,1.111
				c0,0.651-0.659,0.874-1.426,0.874c-0.886,0-1.652,0.108-2.97,0.323c-2.977,0.559-4.076,2.425-4.18,6.284
				c-0.117,3.301-0.117,7.702-0.117,13.199V505.159z"/>
			<path fill="#1C75BC" d="M662.514,470.938c0-18.814,12.431-43.139,45.448-43.139c27.396,0,44.456,15.951,44.456,41.154
				c0,25.204-17.612,45.119-45.563,45.119C675.276,514.073,662.514,490.411,662.514,470.938z M737.007,473.024
				c0-24.646-14.188-39.943-32.239-39.943c-12.651,0-27.07,7.048-27.07,34.448c0,22.882,12.661,41.039,33.779,41.039
				C719.184,508.568,737.007,504.834,737.007,473.024z"/>
			<path fill="#1C75BC" d="M764.519,470.938c0-18.814,12.44-43.139,45.452-43.139c27.398,0,44.453,15.951,44.453,41.154
				c0,25.204-17.607,45.119-45.555,45.119C777.29,514.073,764.519,490.411,764.519,470.938z M839.022,473.024
				c0-24.646-14.202-39.943-32.245-39.943c-12.655,0-27.07,7.048-27.07,34.448c0,22.882,12.657,41.039,33.779,41.039
				C821.198,508.568,839.022,504.834,839.022,473.024z"/>
			<path fill="#1C75BC" d="M877.434,461.253c0-16.725,0-19.81-0.231-23.33c-0.214-3.736-1.097-5.506-4.729-6.27
				c-0.88-0.22-2.744-0.33-4.288-0.33c-1.209,0-1.872-0.223-1.872-0.984c0-0.777,0.767-0.998,2.425-0.998
				c5.829,0,12.763,0.331,15.843,0.331c3.409,0,10.342-0.331,16.942-0.331c13.762,0,32.134,0,44.128,12.55
				c5.498,5.72,10.671,14.849,10.671,27.945c0,13.863-5.825,24.429-11.983,30.697c-5.072,5.179-16.511,12.993-36.868,12.993
				c-3.967,0-8.479-0.331-12.659-0.665c-4.182-0.333-8.035-0.66-10.776-0.66c-1.215,0-3.636,0-6.282,0.112
				c-2.527,0-5.381,0.215-7.587,0.215c-1.428,0-2.194-0.327-2.194-1.095c0-0.547,0.435-0.88,1.758-0.88
				c1.65,0,2.969-0.226,3.958-0.444c2.2-0.436,2.754-2.856,3.192-6.055c0.554-4.617,0.554-13.312,0.554-23.433V461.253z
				 M891.177,473.355c0,11.662,0.115,20.142,0.226,22.229c0.113,2.748,0.332,7.153,1.213,8.367
				c1.429,2.087,5.716,4.396,14.411,4.396c11.227,0,18.708-2.196,25.305-7.916c7.048-6.055,9.242-16.065,9.242-27.407
				c0-13.971-5.828-22.989-10.558-27.502c-10.122-9.687-22.669-11.003-31.245-11.003c-2.207,0-6.275,0.324-7.155,0.768
				c-0.993,0.44-1.323,0.992-1.323,2.202c-0.115,3.738-0.115,13.31-0.115,22.004V473.355z"/>
		</g>
		<g>
			<path fill="#58595B" d="M41.402,661.698c-3.931-3.45-4.973-7.946-4.973-11.835c0-2.729,0.839-7.462,4.689-10.987
				c2.891-2.655,6.702-4.254,12.681-4.254c2.488,0,3.971,0.16,5.818,0.397c1.523,0.197,2.807,0.562,4.008,0.682
				c0.445,0.039,0.601,0.244,0.601,0.486c0,0.316-0.115,0.801-0.196,2.206c-0.08,1.323-0.041,3.523-0.122,4.33
				c-0.039,0.603-0.12,0.925-0.484,0.925c-0.318,0-0.404-0.322-0.404-0.892c-0.031-1.241-0.557-2.645-1.563-3.687
				c-1.32-1.405-4.452-2.487-8.141-2.487c-3.492,0-5.776,0.888-7.541,2.487c-2.929,2.684-3.696,6.494-3.696,10.389
				c0,9.549,7.267,14.288,12.643,14.288c3.567,0,5.732-0.401,7.338-2.25c0.687-0.764,1.203-1.921,1.364-2.649
				c0.12-0.638,0.201-0.797,0.526-0.797c0.276,0,0.361,0.279,0.361,0.595c0,0.484-0.484,3.972-0.887,5.334
				c-0.203,0.687-0.36,0.892-1.042,1.165c-1.602,0.644-4.653,0.929-7.22,0.929C49.668,666.073,45.05,664.871,41.402,661.698z"/>
			<path fill="#58595B" d="M86.922,646.812c0-6.098,0-7.218-0.075-8.503c-0.086-1.365-0.402-2.001-1.725-2.287
				c-0.323-0.076-1-0.118-1.569-0.118c-0.438,0-0.681-0.078-0.681-0.361c0-0.284,0.284-0.364,0.88-0.364
				c2.127,0,4.656,0.124,5.501,0.124c1.364,0,4.409-0.124,5.652-0.124c2.526,0,5.217,0.24,7.387,1.728
				c1.121,0.76,2.729,2.812,2.729,5.496c0,2.974-1.25,5.69-5.296,8.985c3.567,4.491,6.337,8.065,8.702,10.55
				c2.245,2.328,3.89,2.611,4.496,2.729c0.44,0.081,0.8,0.122,1.123,0.122c0.315,0,0.479,0.122,0.479,0.323
				c0,0.318-0.281,0.394-0.763,0.394h-3.81c-2.249,0-3.254-0.199-4.295-0.758c-1.726-0.919-3.248-2.811-5.496-5.899
				c-1.599-2.208-3.447-4.935-3.969-5.536c-0.198-0.234-0.44-0.274-0.721-0.274l-3.491-0.084c-0.199,0-0.323,0.084-0.323,0.324
				v0.558c0,3.731,0,6.898,0.198,8.587c0.125,1.162,0.367,2.042,1.572,2.205c0.599,0.082,1.479,0.161,1.964,0.161
				c0.322,0,0.479,0.122,0.479,0.323c0,0.273-0.278,0.394-0.803,0.394c-2.324,0-5.295-0.12-5.896-0.12
				c-0.763,0-3.292,0.12-4.893,0.12c-0.526,0-0.804-0.12-0.804-0.394c0-0.201,0.162-0.323,0.648-0.323
				c0.596,0,1.076-0.079,1.436-0.161c0.804-0.163,1.004-1.043,1.163-2.205c0.2-1.688,0.2-4.855,0.2-8.55V646.812z M91.659,649.982
				c0,0.443,0.082,0.604,0.366,0.727c0.839,0.275,2.042,0.397,3.043,0.397c1.608,0,2.123-0.161,2.849-0.681
				c1.202-0.886,2.367-2.727,2.367-6.02c0-5.701-3.771-7.339-6.137-7.339c-1,0-1.723,0.039-2.122,0.159
				c-0.284,0.085-0.366,0.244-0.366,0.559V649.982z"/>
			<path fill="#58595B" d="M131.245,646.812c0-6.098,0-7.218-0.08-8.503c-0.076-1.365-0.399-2.001-1.724-2.287
				c-0.323-0.076-1.005-0.118-1.565-0.118c-0.445,0-0.688-0.078-0.688-0.361c0-0.284,0.286-0.364,0.888-0.364
				c1.083,0,2.249,0.039,3.254,0.039c1.037,0.041,1.961,0.085,2.526,0.085c1.281,0,9.264,0,10.026-0.044
				c0.758-0.08,1.404-0.161,1.725-0.238c0.198-0.041,0.44-0.163,0.641-0.163c0.203,0,0.242,0.163,0.242,0.36
				c0,0.285-0.201,0.77-0.323,2.608c-0.033,0.405-0.12,2.169-0.201,2.649c-0.036,0.2-0.117,0.444-0.4,0.444
				c-0.279,0-0.36-0.205-0.36-0.565c0-0.283-0.039-0.958-0.241-1.442c-0.276-0.72-0.677-1.204-2.687-1.44
				c-0.677-0.081-4.893-0.159-5.695-0.159c-0.198,0-0.283,0.111-0.283,0.396v10.15c0,0.275,0.041,0.438,0.283,0.438
				c0.878,0,5.493,0,6.413-0.079c0.969-0.084,1.565-0.202,1.929-0.598c0.281-0.323,0.441-0.529,0.641-0.529
				c0.165,0,0.283,0.084,0.283,0.33c0,0.238-0.156,0.876-0.318,2.927c-0.041,0.798-0.166,2.407-0.166,2.69
				c0,0.313,0,0.76-0.359,0.76c-0.279,0-0.365-0.163-0.365-0.369c-0.039-0.391-0.039-0.918-0.155-1.432
				c-0.199-0.813-0.763-1.409-2.25-1.57c-0.758-0.079-4.728-0.116-5.695-0.116c-0.201,0-0.241,0.161-0.241,0.399v3.163
				c0,1.366-0.038,5.059,0,6.218c0.085,2.771,0.723,3.372,4.813,3.372c1.046,0,2.729,0,3.771-0.484
				c1.046-0.484,1.525-1.317,1.809-2.968c0.076-0.434,0.161-0.597,0.435-0.597c0.323,0,0.323,0.313,0.323,0.72
				c0,0.924-0.323,3.647-0.516,4.453c-0.283,1.043-0.646,1.043-2.171,1.043c-3.002,0-5.214-0.083-6.934-0.124
				c-1.729-0.075-2.97-0.12-4.173-0.12c-0.445,0-1.328,0-2.293,0.045c-0.919,0-1.961,0.075-2.768,0.075
				c-0.519,0-0.799-0.12-0.799-0.394c0-0.201,0.161-0.323,0.641-0.323c0.601,0,1.085-0.079,1.449-0.161
				c0.799-0.163,1-1.043,1.161-2.205c0.198-1.688,0.198-4.855,0.198-8.55V646.812z"/>
			<path fill="#58595B" d="M172.235,655.277c-0.203,0-0.279,0.083-0.359,0.321l-2.168,5.493c-0.399,1.008-0.602,1.969-0.602,2.454
				c0,0.719,0.36,1.242,1.607,1.242h0.601c0.484,0,0.602,0.083,0.602,0.323c0,0.318-0.242,0.394-0.682,0.394
				c-1.284,0-3.008-0.12-4.255-0.12c-0.439,0-2.648,0.12-4.73,0.12c-0.521,0-0.763-0.075-0.763-0.394
				c0-0.24,0.158-0.323,0.481-0.323c0.359,0,0.924-0.041,1.242-0.079c1.848-0.245,2.608-1.609,3.415-3.617l10.066-24.871
				c0.477-1.163,0.719-1.599,1.122-1.599c0.36,0,0.602,0.356,1.001,1.281c0.965,2.203,7.386,18.254,9.953,24.346
				c1.523,3.61,2.689,4.177,3.528,4.378c0.606,0.12,1.203,0.161,1.684,0.161c0.326,0,0.523,0.039,0.523,0.323
				c0,0.318-0.361,0.394-1.843,0.394c-1.445,0-4.377,0-7.59-0.075c-0.718-0.045-1.203-0.045-1.203-0.318
				c0-0.24,0.167-0.323,0.565-0.364c0.284-0.081,0.567-0.443,0.364-0.919l-3.212-8.268c-0.081-0.2-0.203-0.283-0.401-0.283H172.235z
				 M180.418,653.277c0.204,0,0.245-0.122,0.204-0.24l-3.614-9.872c-0.039-0.162-0.076-0.356-0.195-0.356
				c-0.122,0-0.203,0.194-0.242,0.356l-3.689,9.827c-0.042,0.163,0,0.285,0.156,0.285H180.418z"/>
			<path fill="#58595B" d="M215.48,637.423l-5.983,0.166c-2.325,0.076-3.286,0.279-3.89,1.165c-0.401,0.597-0.602,1.082-0.682,1.401
				c-0.079,0.319-0.204,0.48-0.441,0.48c-0.284,0-0.363-0.199-0.363-0.642c0-0.644,0.767-4.293,0.843-4.614
				c0.125-0.523,0.242-0.758,0.484-0.758c0.32,0,0.718,0.397,1.724,0.475c1.164,0.12,2.689,0.205,4.012,0.205h15.887
				c1.284,0,2.165-0.124,2.765-0.205c0.602-0.118,0.925-0.192,1.086-0.192c0.279,0,0.317,0.235,0.317,0.836
				c0,0.843-0.117,3.61-0.117,4.651c-0.039,0.407-0.125,0.646-0.362,0.646c-0.323,0-0.401-0.199-0.441-0.807l-0.043-0.436
				c-0.082-1.041-1.164-2.171-4.731-2.25l-5.054-0.122v16.449c0,3.694,0,6.861,0.203,8.592c0.118,1.12,0.36,2,1.564,2.163
				c0.558,0.082,1.438,0.161,2.042,0.161c0.439,0,0.643,0.122,0.643,0.323c0,0.273-0.318,0.394-0.763,0.394
				c-2.648,0-5.173-0.12-6.295-0.12c-0.93,0-3.456,0.12-5.059,0.12c-0.521,0-0.802-0.12-0.802-0.394
				c0-0.201,0.161-0.323,0.646-0.323c0.596,0,1.081-0.079,1.445-0.161c0.798-0.163,1.041-1.043,1.161-2.205
				c0.203-1.688,0.203-4.855,0.203-8.55V637.423z"/>
			<path fill="#58595B" d="M252.653,646.812c0-6.098,0-7.218-0.081-8.503c-0.081-1.365-0.479-2.049-1.365-2.243
				c-0.439-0.12-0.961-0.162-1.444-0.162c-0.399,0-0.641-0.078-0.641-0.401c0-0.244,0.326-0.324,0.964-0.324
				c1.525,0,4.053,0.124,5.215,0.124c0.999,0,3.368-0.124,4.892-0.124c0.523,0,0.849,0.08,0.849,0.324
				c0,0.323-0.245,0.401-0.648,0.401c-0.398,0-0.715,0.042-1.203,0.118c-1.081,0.199-1.403,0.884-1.483,2.287
				c-0.081,1.285-0.081,2.405-0.081,8.503v7.061c0,3.894,0,7.066,0.162,8.784c0.119,1.091,0.402,1.808,1.606,1.971
				c0.557,0.082,1.444,0.161,2.046,0.161c0.44,0,0.641,0.122,0.641,0.323c0,0.273-0.323,0.394-0.758,0.394
				c-2.653,0-5.178-0.12-6.265-0.12c-0.919,0-3.447,0.12-5.053,0.12c-0.526,0-0.799-0.12-0.799-0.394
				c0-0.201,0.158-0.323,0.642-0.323c0.602,0,1.076-0.079,1.441-0.161c0.804-0.163,1.041-0.847,1.164-2.01
				c0.2-1.679,0.2-4.852,0.2-8.745V646.812z"/>
			<path fill="#58595B" d="M281.132,639.11c-0.927-2.205-1.606-2.651-3.051-3.045c-0.604-0.162-1.247-0.162-1.565-0.162
				c-0.359,0-0.484-0.118-0.484-0.361c0-0.325,0.442-0.364,1.044-0.364c2.128,0,4.416,0.124,5.821,0.124
				c1.005,0,2.926-0.124,4.937-0.124c0.477,0,0.918,0.08,0.918,0.364c0,0.283-0.241,0.361-0.603,0.361
				c-0.643,0-1.244,0.042-1.563,0.284c-0.283,0.194-0.4,0.479-0.4,0.84c0,0.518,0.356,1.649,0.921,3.085l6.897,18.218h0.167
				c1.724-4.417,6.934-17.332,7.901-19.978c0.204-0.527,0.36-1.126,0.36-1.486c0-0.321-0.157-0.646-0.526-0.758
				c-0.479-0.163-1.075-0.205-1.601-0.205c-0.364,0-0.683-0.039-0.683-0.322c0-0.323,0.36-0.403,1.123-0.403
				c2.005,0,3.692,0.124,4.213,0.124c0.682,0,2.567-0.124,3.775-0.124c0.516,0,0.838,0.08,0.838,0.364
				c0,0.283-0.242,0.361-0.641,0.361c-0.401,0-1.247,0-1.965,0.479c-0.526,0.362-1.127,1.041-2.203,3.612
				c-1.568,3.771-2.653,5.939-4.822,10.866c-2.568,5.862-4.447,10.231-5.334,12.239c-1.042,2.33-1.279,2.974-1.842,2.974
				c-0.523,0-0.763-0.568-1.526-2.45L281.132,639.11z"/>
			<path fill="#58595B" d="M327.898,646.812c0-6.098,0-7.218-0.082-8.503c-0.08-1.365-0.403-2.001-1.726-2.287
				c-0.315-0.076-1.003-0.118-1.563-0.118c-0.441,0-0.682-0.078-0.682-0.361c0-0.284,0.282-0.364,0.882-0.364
				c1.079,0,2.25,0.039,3.25,0.039c1.042,0.041,1.971,0.085,2.528,0.085c1.284,0,9.267,0,10.029-0.044
				c0.763-0.08,1.403-0.161,1.724-0.238c0.199-0.041,0.444-0.163,0.641-0.163c0.202,0,0.242,0.163,0.242,0.36
				c0,0.285-0.196,0.77-0.323,2.608c-0.034,0.405-0.116,2.169-0.2,2.649c-0.037,0.2-0.117,0.444-0.401,0.444
				c-0.279,0-0.362-0.205-0.362-0.565c0-0.283-0.042-0.958-0.242-1.442c-0.274-0.72-0.679-1.204-2.685-1.44
				c-0.676-0.081-4.892-0.159-5.694-0.159c-0.202,0-0.283,0.111-0.283,0.396v10.15c0,0.275,0.042,0.438,0.283,0.438
				c0.878,0,5.497,0,6.417-0.079c0.965-0.084,1.562-0.202,1.931-0.598c0.274-0.323,0.436-0.529,0.636-0.529
				c0.162,0,0.284,0.084,0.284,0.33c0,0.238-0.163,0.876-0.323,2.927c-0.041,0.798-0.161,2.407-0.161,2.69
				c0,0.313,0,0.76-0.359,0.76c-0.279,0-0.359-0.163-0.359-0.369c-0.04-0.391-0.04-0.918-0.162-1.432
				c-0.203-0.813-0.758-1.409-2.25-1.57c-0.763-0.079-4.734-0.116-5.694-0.116c-0.201,0-0.243,0.161-0.243,0.399v3.163
				c0,1.366-0.036,5.059,0,6.218c0.081,2.771,0.727,3.372,4.816,3.372c1.044,0,2.724,0,3.773-0.484
				c1.042-0.484,1.521-1.317,1.804-2.968c0.076-0.434,0.156-0.597,0.441-0.597c0.322,0,0.322,0.313,0.322,0.72
				c0,0.924-0.322,3.647-0.525,4.453c-0.281,1.043-0.636,1.043-2.166,1.043c-3.008,0-5.21-0.083-6.939-0.124
				c-1.726-0.075-2.966-0.12-4.174-0.12c-0.44,0-1.322,0-2.284,0.045c-0.923,0-1.97,0.075-2.77,0.075
				c-0.521,0-0.802-0.12-0.802-0.394c0-0.201,0.164-0.323,0.641-0.323c0.602,0,1.086-0.079,1.446-0.161
				c0.804-0.163,1.004-1.043,1.162-2.205c0.202-1.688,0.202-4.855,0.202-8.55V646.812z"/>
			<path fill="#58595B" d="M389.787,639.11c-0.481-1.486-0.924-2.443-1.486-2.851c-0.443-0.273-1.248-0.356-1.607-0.356
				c-0.399,0-0.641-0.039-0.641-0.361c0-0.284,0.323-0.364,0.883-0.364c2.088,0,4.291,0.124,4.655,0.124
				c0.362,0,2.126-0.124,4.455-0.124c0.558,0,0.841,0.124,0.841,0.364c0,0.322-0.326,0.361-0.729,0.361c-0.313,0-0.716,0-1,0.162
				c-0.36,0.155-0.436,0.438-0.436,0.878c0,0.527,0.394,1.885,0.88,3.692c0.682,2.644,4.416,14.803,5.132,17.047h0.117l7.788-20.938
				c0.404-1.118,0.684-1.442,1-1.442c0.444,0,0.646,0.602,1.164,1.888l8.347,20.214h0.12c0.724-2.688,3.931-13.28,5.338-17.969
				c0.281-0.921,0.398-1.77,0.398-2.328c0-0.647-0.359-1.203-1.924-1.203c-0.406,0-0.687-0.118-0.687-0.361
				c0-0.284,0.328-0.364,0.929-0.364c2.122,0,3.809,0.124,4.173,0.124c0.273,0,2-0.124,3.325-0.124c0.439,0,0.721,0.08,0.721,0.324
				c0,0.283-0.198,0.401-0.56,0.401c-0.403,0-0.961,0.042-1.406,0.205c-0.961,0.351-1.403,1.96-2.247,4.245
				c-1.846,5.051-6.059,17.812-8.019,23.828c-0.445,1.409-0.648,1.892-1.165,1.892c-0.402,0-0.645-0.482-1.246-1.97l-8.343-20.132
				h-0.081c-0.76,2.039-6.096,16.277-7.824,19.972c-0.763,1.647-0.963,2.13-1.445,2.13c-0.397,0-0.555-0.444-0.923-1.487
				L389.787,639.11z"/>
			<path fill="#58595B" d="M450.907,646.812c0-6.098,0-7.218-0.076-8.503c-0.081-1.365-0.398-2.001-1.724-2.287
				c-0.323-0.076-1-0.118-1.564-0.118c-0.44,0-0.683-0.078-0.683-0.361c0-0.284,0.281-0.364,0.881-0.364
				c1.085,0,2.246,0.039,3.246,0.039c1.052,0.041,1.971,0.085,2.528,0.085c1.289,0,9.266,0,10.029-0.044
				c0.768-0.08,1.405-0.161,1.732-0.238c0.197-0.041,0.437-0.163,0.639-0.163c0.198,0,0.242,0.163,0.242,0.36
				c0,0.285-0.202,0.77-0.324,2.608c-0.039,0.405-0.12,2.169-0.2,2.649c-0.042,0.2-0.124,0.444-0.403,0.444
				c-0.281,0-0.359-0.205-0.359-0.565c0-0.283-0.039-0.958-0.242-1.442c-0.281-0.72-0.684-1.204-2.686-1.44
				c-0.683-0.081-4.897-0.159-5.701-0.159c-0.202,0-0.273,0.111-0.273,0.396v10.15c0,0.275,0.04,0.438,0.273,0.438
				c0.888,0,5.502,0,6.421-0.079c0.966-0.084,1.563-0.202,1.927-0.598c0.281-0.323,0.443-0.529,0.64-0.529
				c0.163,0,0.279,0.084,0.279,0.33c0,0.238-0.161,0.876-0.318,2.927c-0.041,0.798-0.158,2.407-0.158,2.69
				c0,0.313,0,0.76-0.361,0.76c-0.285,0-0.361-0.163-0.361-0.369c-0.041-0.391-0.041-0.918-0.165-1.432
				c-0.202-0.813-0.758-1.409-2.246-1.57c-0.758-0.079-4.728-0.116-5.694-0.116c-0.197,0-0.237,0.161-0.237,0.399v3.163
				c0,1.366-0.046,5.059,0,6.218c0.071,2.771,0.717,3.372,4.81,3.372c1.041,0,2.729,0,3.77-0.484
				c1.042-0.484,1.526-1.317,1.805-2.968c0.085-0.434,0.158-0.597,0.439-0.597c0.323,0,0.323,0.313,0.323,0.72
				c0,0.924-0.323,3.647-0.521,4.453c-0.281,1.043-0.64,1.043-2.165,1.043c-3.013,0-5.215-0.083-6.944-0.124
				c-1.718-0.075-2.965-0.12-4.167-0.12c-0.441,0-1.321,0-2.284,0.045c-0.925,0-1.966,0.075-2.771,0.075
				c-0.522,0-0.801-0.12-0.801-0.394c0-0.201,0.161-0.323,0.646-0.323c0.595,0,1.081-0.079,1.434-0.161
				c0.81-0.163,1.008-1.043,1.165-2.205c0.201-1.688,0.201-4.855,0.201-8.55V646.812z"/>
			<path fill="#58595B" d="M490.3,646.812c0-6.098,0-7.218-0.084-8.503c-0.077-1.365-0.401-2.001-1.722-2.287
				c-0.321-0.076-1.007-0.118-1.563-0.118c-0.446,0-0.689-0.078-0.689-0.361c0-0.284,0.282-0.364,0.889-0.364
				c2.122,0,4.651,0.124,5.453,0.124c1.964,0,3.529-0.124,4.896-0.124c7.262,0,8.542,3.893,8.542,6.021
				c0,3.287-1.885,5.258-4.088,7.019c3.289,1.118,7.299,3.971,7.299,8.667c0,4.295-3.33,8.745-10.712,8.745
				c-0.479,0-1.644-0.083-2.803-0.124c-1.203-0.075-2.413-0.12-3.007-0.12c-0.447,0-1.336,0-2.295,0.045
				c-0.92,0-1.966,0.075-2.767,0.075c-0.52,0-0.802-0.12-0.802-0.394c0-0.201,0.16-0.323,0.64-0.323c0.6,0,1.085-0.079,1.448-0.161
				c0.8-0.163,1.002-1.043,1.162-2.205c0.202-1.688,0.202-4.855,0.202-8.55V646.812z M495.116,647.497
				c0,0.322,0.117,0.407,0.277,0.446c0.359,0.071,0.96,0.12,1.884,0.12c1.325,0,2.206-0.159,2.891-0.768
				c1.041-0.84,1.647-2.283,1.647-4.255c0-2.688-1.564-6.214-5.017-6.214c-0.562,0-0.925,0-1.326,0.078
				c-0.282,0.083-0.356,0.246-0.356,0.684V647.497z M500.411,650.709c-0.851-0.606-1.77-0.89-3.331-0.968
				c-0.727-0.04-1.129-0.04-1.729-0.04c-0.16,0-0.234,0.079-0.234,0.281v9.511c0,2.649,0.117,3.323,1.397,3.853
				c1.084,0.435,2.007,0.482,2.93,0.482c1.805,0,4.856-0.967,4.856-5.144C504.3,656.2,503.453,652.831,500.411,650.709z"/>
			<path fill="#58595B" d="M556.553,665.032c-0.64-0.285-0.756-0.484-0.756-1.374c0-2.206,0.154-4.611,0.2-5.247
				c0.033-0.604,0.159-1.051,0.478-1.051c0.357,0,0.4,0.365,0.4,0.69c0,0.512,0.158,1.362,0.356,2.039
				c0.892,2.971,3.253,4.053,5.743,4.053c3.607,0,5.373-2.444,5.373-4.566c0-1.971-0.602-3.811-3.933-6.421l-1.847-1.442
				c-4.406-3.458-5.933-6.265-5.933-9.513c0-4.415,3.688-7.578,9.27-7.578c2.603,0,4.29,0.397,5.333,0.68
				c0.362,0.078,0.567,0.2,0.567,0.483c0,0.522-0.172,1.686-0.172,4.813c0,0.876-0.116,1.201-0.436,1.201
				c-0.283,0-0.406-0.242-0.406-0.717c0-0.368-0.195-1.609-1.041-2.649c-0.602-0.768-1.76-1.974-4.369-1.974
				c-2.972,0-4.774,1.732-4.774,4.139c0,1.849,0.924,3.252,4.255,5.779l1.119,0.837c4.855,3.646,6.582,6.42,6.582,10.229
				c0,2.331-0.886,5.096-3.772,6.983c-2.009,1.281-4.251,1.647-6.381,1.647C560.084,666.073,558.284,665.788,556.553,665.032z"/>
			<path fill="#58595B" d="M591.771,650.347c0-6.859,4.532-15.725,16.566-15.725c9.991,0,16.212,5.814,16.212,14.995
				c0,9.189-6.426,16.456-16.612,16.456C596.427,666.073,591.771,657.442,591.771,650.347z M618.928,651.106
				c0-8.983-5.171-14.562-11.75-14.562c-4.62,0-9.871,2.565-9.871,12.559c0,8.339,4.611,14.96,12.313,14.96
				C612.432,664.063,618.928,662.698,618.928,651.106z"/>
			<path fill="#58595B" d="M651.971,653.872c0,5.136,0,7.904,0.846,8.621c0.68,0.606,1.721,0.892,4.852,0.892
				c2.127,0,3.692-0.039,4.698-1.124c0.479-0.523,0.958-1.644,1.037-2.411c0.039-0.356,0.126-0.6,0.445-0.6
				c0.278,0,0.322,0.202,0.322,0.677c0,0.444-0.284,3.458-0.601,4.621c-0.246,0.882-0.442,1.081-2.533,1.081
				c-2.886,0-4.974-0.083-6.778-0.124c-1.806-0.075-3.246-0.12-4.894-0.12c-0.441,0-1.327,0-2.284,0.045
				c-0.919,0-1.971,0.075-2.767,0.075c-0.524,0-0.808-0.12-0.808-0.394c0-0.201,0.161-0.323,0.646-0.323
				c0.601,0,1.079-0.079,1.442-0.161c0.802-0.163,1.009-1.043,1.162-2.205c0.202-1.688,0.202-4.855,0.202-8.55v-7.061
				c0-6.098,0-7.218-0.077-8.503c-0.086-1.365-0.407-2.001-1.728-2.287c-0.326-0.076-0.802-0.118-1.324-0.118
				c-0.442,0-0.682-0.078-0.682-0.361c0-0.284,0.284-0.364,0.886-0.364c1.884,0,4.411,0.124,5.491,0.124
				c0.964,0,3.892-0.124,5.459-0.124c0.556,0,0.839,0.08,0.839,0.364c0,0.283-0.245,0.361-0.724,0.361
				c-0.44,0-1.08,0.042-1.561,0.118c-1.086,0.199-1.406,0.884-1.483,2.287c-0.085,1.285-0.085,2.405-0.085,8.503V653.872z"/>
			<path fill="#58595B" d="M682.742,646.812c0-6.098,0-7.218-0.077-8.503c-0.083-1.365-0.406-2.001-1.727-2.287
				c-0.321-0.076-1.002-0.118-1.568-0.118c-0.437,0-0.675-0.078-0.675-0.361c0-0.284,0.277-0.364,0.88-0.364
				c2.127,0,4.65,0.124,5.854,0.124c0.967,0,3.491-0.124,4.938-0.124c0.602,0,0.88,0.08,0.88,0.364c0,0.283-0.239,0.361-0.642,0.361
				c-0.445,0-0.685,0.042-1.158,0.118c-1.087,0.199-1.409,0.884-1.491,2.287c-0.085,1.285-0.085,2.405-0.085,8.503v5.618
				c0,5.818,1.169,8.265,3.137,9.873c1.803,1.478,3.646,1.641,5.012,1.641c1.765,0,3.931-0.559,5.539-2.167
				c2.2-2.2,2.323-5.821,2.323-9.951v-5.014c0-6.098,0-7.218-0.078-8.503c-0.084-1.365-0.401-2.001-1.721-2.287
				c-0.328-0.076-1.008-0.118-1.448-0.118c-0.441,0-0.685-0.078-0.685-0.361c0-0.284,0.282-0.364,0.846-0.364
				c2.045,0,4.571,0.124,4.613,0.124c0.479,0,3.006-0.124,4.576-0.124c0.563,0,0.834,0.08,0.834,0.364
				c0,0.283-0.237,0.361-0.719,0.361c-0.443,0-0.684,0.042-1.161,0.118c-1.087,0.199-1.405,0.884-1.487,2.287
				c-0.08,1.285-0.08,2.405-0.08,8.503v4.295c0,4.454-0.438,9.187-3.808,12.077c-2.852,2.445-5.741,2.89-8.349,2.89
				c-2.122,0-5.975-0.12-8.904-2.771c-2.045-1.85-3.57-4.813-3.57-10.632V646.812z"/>
			<path fill="#58595B" d="M738.019,637.423l-5.984,0.166c-2.321,0.076-3.281,0.279-3.883,1.165
				c-0.406,0.597-0.602,1.082-0.69,1.401c-0.072,0.319-0.194,0.48-0.438,0.48c-0.279,0-0.363-0.199-0.363-0.642
				c0-0.644,0.764-4.293,0.841-4.614c0.125-0.523,0.245-0.758,0.484-0.758c0.323,0,0.726,0.397,1.729,0.475
				c1.162,0.12,2.688,0.205,4.007,0.205h15.89c1.28,0,2.166-0.124,2.771-0.205c0.603-0.118,0.923-0.192,1.076-0.192
				c0.283,0,0.329,0.235,0.329,0.836c0,0.843-0.127,3.61-0.127,4.651c-0.035,0.407-0.118,0.646-0.355,0.646
				c-0.32,0-0.408-0.199-0.442-0.807l-0.039-0.436c-0.082-1.041-1.163-2.171-4.738-2.25l-5.056-0.122v16.449
				c0,3.694,0,6.861,0.201,8.592c0.125,1.12,0.359,2,1.567,2.163c0.558,0.082,1.443,0.161,2.044,0.161
				c0.448,0,0.641,0.122,0.641,0.323c0,0.273-0.322,0.394-0.757,0.394c-2.651,0-5.179-0.12-6.302-0.12
				c-0.922,0-3.45,0.12-5.058,0.12c-0.52,0-0.802-0.12-0.802-0.394c0-0.201,0.159-0.323,0.645-0.323
				c0.601,0,1.081-0.079,1.449-0.161c0.801-0.163,1.037-1.043,1.159-2.205c0.203-1.688,0.203-4.855,0.203-8.55V637.423z"/>
			<path fill="#58595B" d="M775.193,646.812c0-6.098,0-7.218-0.083-8.503c-0.074-1.365-0.48-2.049-1.366-2.243
				c-0.438-0.12-0.956-0.162-1.44-0.162c-0.406,0-0.64-0.078-0.64-0.401c0-0.244,0.32-0.324,0.96-0.324
				c1.521,0,4.05,0.124,5.215,0.124c1.001,0,3.37-0.124,4.894-0.124c0.523,0,0.842,0.08,0.842,0.324
				c0,0.323-0.239,0.401-0.645,0.401c-0.396,0-0.72,0.042-1.198,0.118c-1.085,0.199-1.403,0.884-1.487,2.287
				c-0.072,1.285-0.072,2.405-0.072,8.503v7.061c0,3.894,0,7.066,0.156,8.784c0.121,1.091,0.401,1.808,1.603,1.971
				c0.563,0.082,1.444,0.161,2.046,0.161c0.442,0,0.646,0.122,0.646,0.323c0,0.273-0.325,0.394-0.764,0.394
				c-2.649,0-5.179-0.12-6.26-0.12c-0.925,0-3.453,0.12-5.056,0.12c-0.519,0-0.802-0.12-0.802-0.394c0-0.201,0.156-0.323,0.64-0.323
				c0.603,0,1.088-0.079,1.448-0.161c0.801-0.163,1.04-0.847,1.165-2.01c0.199-1.679,0.199-4.852,0.199-8.745V646.812z"/>
			<path fill="#58595B" d="M802.585,650.347c0-6.859,4.533-15.725,16.569-15.725c9.991,0,16.203,5.814,16.203,14.995
				c0,9.189-6.419,16.456-16.604,16.456C807.241,666.073,802.585,657.442,802.585,650.347z M829.74,651.106
				c0-8.983-5.168-14.562-11.744-14.562c-4.621,0-9.87,2.565-9.87,12.559c0,8.339,4.606,14.96,12.308,14.96
				C823.246,664.063,829.74,662.698,829.74,651.106z"/>
			<path fill="#58595B" d="M860.019,660.051c0.083,3.133,0.603,4.173,1.402,4.452c0.691,0.244,1.448,0.285,2.095,0.285
				c0.435,0,0.674,0.083,0.674,0.323c0,0.318-0.356,0.394-0.918,0.394c-2.608,0-4.21-0.12-4.974-0.12c-0.36,0-2.25,0.12-4.333,0.12
				c-0.523,0-0.886-0.038-0.886-0.394c0-0.24,0.245-0.323,0.642-0.323c0.529,0,1.246-0.041,1.805-0.202
				c1.045-0.321,1.208-1.486,1.247-4.971l0.36-23.629c0-0.809,0.124-1.364,0.518-1.364c0.442,0,0.811,0.518,1.487,1.242
				c0.479,0.518,6.576,6.944,12.436,12.755c2.729,2.726,8.149,8.505,8.826,9.146h0.2l-0.398-18.01
				c-0.039-2.444-0.402-3.211-1.366-3.618c-0.602-0.234-1.564-0.234-2.127-0.234c-0.479,0-0.641-0.118-0.641-0.361
				c0-0.325,0.445-0.364,1.046-0.364c2.086,0,4.006,0.124,4.853,0.124c0.444,0,1.966-0.124,3.931-0.124
				c0.523,0,0.926,0.039,0.926,0.364c0,0.243-0.241,0.361-0.726,0.361c-0.401,0-0.724,0-1.208,0.118
				c-1.113,0.321-1.436,1.168-1.48,3.413l-0.44,25.313c0,0.882-0.162,1.242-0.52,1.242c-0.442,0-0.928-0.443-1.365-0.878
				c-2.53-2.413-7.664-7.669-11.831-11.8c-4.373-4.328-8.827-9.222-9.551-9.985h-0.116L860.019,660.051z"/>
			<path fill="#58595B" d="M907.593,665.032c-0.646-0.285-0.762-0.484-0.762-1.374c0-2.206,0.161-4.611,0.205-5.247
				c0.038-0.604,0.155-1.051,0.474-1.051c0.362,0,0.401,0.365,0.401,0.69c0,0.512,0.161,1.362,0.361,2.039
				c0.887,2.971,3.253,4.053,5.736,4.053c3.614,0,5.377-2.444,5.377-4.566c0-1.971-0.604-3.811-3.93-6.421l-1.849-1.442
				c-4.405-3.458-5.936-6.265-5.936-9.513c0-4.415,3.689-7.578,9.271-7.578c2.602,0,4.287,0.397,5.334,0.68
				c0.364,0.078,0.563,0.2,0.563,0.483c0,0.522-0.166,1.686-0.166,4.813c0,0.876-0.117,1.201-0.436,1.201
				c-0.283,0-0.404-0.242-0.404-0.717c0-0.368-0.195-1.609-1.043-2.649c-0.602-0.768-1.764-1.974-4.371-1.974
				c-2.974,0-4.778,1.732-4.778,4.139c0,1.849,0.925,3.252,4.255,5.779l1.125,0.837c4.855,3.646,6.582,6.42,6.582,10.229
				c0,2.331-0.891,5.096-3.775,6.983c-2.005,1.281-4.254,1.647-6.382,1.647C911.123,666.073,909.319,665.788,907.593,665.032z"/>
		</g>
	</g>
</g>
</svg>
